# xmcd
#
# Track frame offsets:
#	150
#	20660
#	37972
#	55282
#	71672
#	90860
#	110217
#	130930
#	148285
#	160637
#
# Disc length: 2394 seconds
#
# Revision: 3
# Processed by: cddbd v1.4PL0 Copyright (c) Steve Scherf et al.
# Submitted via: EasyCDDAExtractor 5.1.0
#
DISCID=8909580a
DTITLE=Rodney Crowell - Street Language
DYEAR=1900
DGENRE=Country
TTITLE0=Let Freedom Ring
TTITLE1=Ballad of Fast Eddie
TTITLE2=When I'm Free Again
TTITLE3=She Loves The Jerk
TTITLE4=When The Blue Hour Comes
TTITLE5=Oh King Richard
TTITLE6=Looking for You
TTITLE7=Stay (Don't Be Cruel)
TTITLE8=The Best I Can
TTITLE9=Last Like a Mask
EXTD=
EXTT0=
EXTT1=
EXTT2=Crowell, Rodney
EXTT3=Crowell, Rodney
EXTT4=Crowell, Rodney
EXTT5=
EXTT6=Crowell, Rodney
EXTT7=Crowell, Rodney
EXTT8=
EXTT9=
PLAYORDER=
